<svg width="171" height="152" viewBox="0 0 171 152" fill="none" xmlns="http://www.w3.org/2000/svg">
<path d="M119.381 8.67727V11.1479C121.747 9.10593 123.663 6.57046 126.19 4.69773C131.119 1.04492 136.525 1.15671 142.286 1.88307C138.196 -1.32811 129.658 -0.0612936 125.627 2.90407C123.326 4.59644 121.736 7.00837 119.381 8.67727Z" fill="#F5EFDD"/>
<path d="M116.285 24.1187C117.494 24.4343 117.806 24.5714 118.761 25.354C121.533 24.6955 124.015 24.7518 126.809 25.3287C128.441 25.6659 130.582 26.7937 132.195 25.921C133.667 25.1248 134.172 23.1891 135.564 22.2163C138.288 20.3133 141.786 18.9773 144.761 17.477C146.15 16.7766 148.013 16.1157 148.721 14.6129C152.456 6.69029 142.484 0.19566 135.476 1.502C126.654 3.1462 119.436 9.86505 116.962 18.5839C116.455 20.3707 116.592 22.2923 116.285 24.1187Z" fill="white"/>
<ellipse cx="140.428" cy="9.88226" rx="1.85714" ry="1.85296" fill="#282F3B"/>
<path d="M131.762 1.88379C132.534 2.30688 132.72 2.34641 133.619 2.50144C132.846 2.07835 132.661 2.03882 131.762 1.88379Z" fill="#131411"/>
<path d="M129.904 2.50098C130.677 2.92407 130.863 2.9636 131.761 3.11863C130.989 2.69554 130.803 2.65601 129.904 2.50098Z" fill="#141017"/>
<path d="M127.428 3.73697C128.455 3.98831 128.816 3.92826 129.904 3.73697C128.784 3.38164 128.623 3.44912 127.428 3.73697Z" fill="#1E1D20"/>
<path d="M139.19 8.67698C140.336 8.55222 141.14 8.55222 142.286 8.67698C141.189 7.02043 140.287 7.02043 139.19 8.67698Z" fill="#B6C0D0"/>
<path d="M149.095 6.82422V11.1478C149.75 9.58266 149.75 8.38936 149.095 6.82422Z" fill="#452B1F"/>
<path d="M149.714 6.82422V15.4714L154.047 14.8537C152.777 14.3139 151.728 14.2651 150.333 14.2361C150.643 12.5771 150.88 10.981 150.952 9.29484C155.691 9.6679 160.43 10.4906 165.19 10.5301C164.076 10.8773 163.257 11.0391 162.095 11.1478C162.867 11.5709 163.053 11.6104 163.952 11.7655C163.342 12.679 163.333 12.5085 163.333 13.6184C165.62 13.33 167.83 13.0199 170.142 13.0008C167.993 9.07372 162.332 9.64937 158.381 9.11633C155.388 8.71301 152.571 7.75132 149.714 6.82422Z" fill="#E37A56"/>
<path d="M138.571 8.05957V10.5302C139.011 9.44312 139.011 9.14664 138.571 8.05957Z" fill="#D9EAF8"/>
<path d="M139.19 9.91202L141.667 8.67671C140.238 8.33206 139.961 8.67918 139.19 9.91202Z" fill="#414550"/>
<path d="M137.952 8.67773V10.5307C138.383 9.57086 138.383 9.63757 137.952 8.67773Z" fill="#6D758E"/>
<path d="M141.253 9.08889C141.219 9.12287 141.184 9.77512 141.46 9.50026C141.494 9.46629 141.529 8.81404 141.253 9.08889Z" fill="#0A000B"/>
<path d="M141.872 9.08889C141.838 9.12287 141.804 9.77512 142.079 9.50026C142.113 9.46629 142.148 8.81404 141.872 9.08889Z" fill="#9EA6AE"/>
<path d="M142.285 8.67773L141.666 11.1484C142.473 10.1181 142.627 9.91798 142.285 8.67773Z" fill="#C7D1DE"/>
<path d="M139.81 9.2959C140.416 10.3972 140.372 10.2804 141.667 10.5312C140.91 9.79311 140.788 9.71837 139.81 9.2959Z" fill="#2E292B"/>
<path d="M150.952 9.2959L150.333 14.2371C154.879 14.234 159.606 13.7554 163.952 12.3842C163.179 11.9611 162.994 11.9215 162.095 11.7665C163.21 11.4194 164.028 11.2576 165.19 11.1489C161.144 9.40769 155.345 9.48428 150.952 9.2959Z" fill="#F07353"/>
<path d="M138.571 10.5303C139.678 11.4086 140.246 11.5784 141.667 11.7656C140.618 11.1096 139.785 10.8267 138.571 10.5303Z" fill="#BFCDD4"/>
<path d="M140.222 10.7356C139.946 11.0111 140.6 10.9764 140.634 10.9424C140.91 10.6669 140.256 10.7016 140.222 10.7356Z" fill="#60626C"/>
<path d="M149.095 11.1475V13.0004C149.526 12.0406 149.526 12.1073 149.095 11.1475Z" fill="#733930"/>
<path d="M140.222 11.971C139.946 12.2465 140.6 12.2118 140.634 12.1777C140.91 11.9023 140.256 11.9369 140.222 11.971Z" fill="#6B7783"/>
<path d="M139.81 12.3835C140.929 12.7389 141.09 12.6714 142.286 12.3835C141.259 12.1322 140.898 12.1923 139.81 12.3835Z" fill="#0F1522"/>
<path d="M149.095 13.001V15.4716C149.534 14.3851 149.534 14.0874 149.095 13.001Z" fill="#A87B66"/>
<path d="M159.619 13.001C160.889 13.5408 161.939 13.5896 163.333 13.6186C162.063 13.0788 161.014 13.03 159.619 13.001Z" fill="#C66F48"/>
<path d="M155.904 13.6191C157.175 14.159 158.224 14.2078 159.619 14.2368C158.348 13.697 157.299 13.6482 155.904 13.6191Z" fill="#C67952"/>
<path d="M159.619 13.6191C160.392 14.0422 160.577 14.0818 161.476 14.2368C160.704 13.8137 160.518 13.7742 159.619 13.6191Z" fill="#EAB48D"/>
<path d="M115.666 22.8828V24.7358C116.097 23.7759 116.097 23.8426 115.666 22.8828Z" fill="#5F5A53"/>
<path d="M116.285 24.7363C117.217 25.1582 117.718 25.2465 118.761 25.354C117.829 24.9321 117.328 24.8438 116.285 24.7363Z" fill="#5D5958"/>
<path d="M115.666 25.3535C115.666 36.5924 115.77 49.5977 120.618 59.9422C121.133 57.4604 119.561 54.8891 118.761 52.5303C123.938 52.122 129.021 50.4186 134.237 50.6774C132.271 42.3298 130.732 35.139 132.999 26.5888C127.188 26.5851 121.473 25.3696 115.666 25.3535Z" fill="#282F3B"/>
<path d="M118.967 52.9424C118.933 52.9764 118.898 53.6286 119.174 53.3538C119.208 53.3198 119.243 52.6676 118.967 52.9424Z" fill="#A89D8B"/>
<path d="M119.381 54.3846C120.665 53.6619 121.632 53.3395 123.095 53.1493C121.385 52.1666 119.823 52.3265 119.381 54.3846Z" fill="#48504F"/>
<path d="M128.047 93.9131C126.895 95.115 125.901 96.2565 124.952 97.619C126.719 96.7734 128.094 95.9668 128.047 93.9131Z" fill="#484B49"/>
<path d="M118.143 98.8555C118.915 99.2786 119.101 99.3181 120 99.4731C119.227 99.05 119.041 99.0105 118.143 98.8555Z" fill="#C5BDB0"/>
<path d="M86.5713 100.091C88.5399 100.562 90.7115 100.101 92.7618 100.091L107 100.091C104.873 99.2005 102.482 99.4729 100.19 99.4729C95.7759 99.4729 90.8229 98.8367 86.5713 100.091Z" fill="#66635D"/>
<path d="M109.476 99.473C112.708 100.826 117.132 100.091 120.618 100.091C117.386 98.7374 112.962 99.473 109.476 99.473Z" fill="#42463D"/>
<path d="M158.381 103.796V108.737C159.1 107.026 159.1 105.507 158.381 103.796Z" fill="#D7D6C9"/>
<path d="M75.4282 130.973C76.3604 131.395 76.8612 131.483 77.9043 131.59C77.0395 133.784 75.617 136.042 75.2573 138.385C74.7119 141.934 75.6473 143.775 73.571 147.032C76.2812 147.791 78.7995 148.244 81.6186 148.267C78.4212 149.236 75.0505 149.493 71.7139 149.502C75.8534 151.236 82.0934 150.12 86.571 150.12V137.149C86.571 134.678 86.2757 132.375 87.8091 130.355C87.9447 128.958 87.8116 129.104 89.0472 128.502C89.0299 129.823 89.4706 129.639 90.9043 129.737C90.3559 128.492 90.3193 128.436 91.5234 127.884C87.2934 126.163 79.6662 129.642 75.4282 130.973Z" fill="white"/>
<path fill-rule="evenodd" clip-rule="evenodd" d="M123.095 53.1487L122.476 51.9134C123.5 51.8695 124.617 51.6671 125.76 51.4601C127.991 51.0558 130.321 50.6336 132.251 51.3378C133.929 51.9499 135.022 53.6496 135.904 55.1073C136.141 55.4985 136.42 55.9427 136.725 56.4287L136.725 56.4295L136.725 56.4302L136.726 56.4309C139.02 60.0889 142.799 66.1118 141.431 69.6994C141.681 69.6159 141.821 69.5587 141.92 69.46C142.039 69.341 142.098 69.1618 142.215 68.8037L142.215 68.8036L142.215 68.8035C142.237 68.7385 142.26 68.6676 142.286 68.5901C145.861 72.8947 148.442 78.9206 149.026 84.4829C148.978 83.7131 149.001 83.0431 149.095 82.1786C149.834 83.1107 150.316 84.1125 150.794 85.1054C151.456 86.4817 152.11 87.8407 153.429 88.9728C153.336 89.1535 153.244 89.3313 153.154 89.5071C153.102 89.6069 153.051 89.7062 153 89.8049C156.336 93.6543 156.938 98.8103 157.512 103.726C157.563 104.164 157.614 104.599 157.666 105.032C157.709 105.387 157.759 105.746 157.809 106.106L157.809 106.108V106.109C158.072 108.015 158.343 109.976 157.717 111.814C157.634 112.058 157.524 112.294 157.39 112.521C158.308 115.621 157.306 119.841 155.767 122.73C155.387 124.952 154.708 127.142 154.126 128.503C151.007 135.805 145.354 145.018 137.276 147.306C137.701 147.372 138.133 147.479 138.571 147.65C138.141 147.823 137.705 147.989 137.268 148.156L137.267 148.156L137.267 148.156C135.793 148.718 134.312 149.283 133 150.121C129.89 149.515 126.41 149.722 123.018 149.924C121.354 150.023 119.711 150.121 118.143 150.121H86.5713V130.356L88.4617 131.299C87.0416 130.425 87.0029 128.935 89.0482 128.502C88.6892 129.935 89.1689 129.986 90.9054 129.12L90.8165 129.068L90.8164 129.068C90.4698 128.866 90.2965 128.765 90.1593 128.628C90.0223 128.492 89.9212 128.319 89.7193 127.973L89.7192 127.973L89.6673 127.885C93.1684 126.604 96.7656 125.684 100.407 124.934C95.9564 125.789 91.514 126.822 87.1904 127.885C87.3094 127.449 87.4632 127.025 87.6455 126.614C87.2897 127.039 86.932 127.463 86.5719 127.885V101.326C85.4836 101.517 85.1227 101.576 84.0957 101.326C86.7339 100.661 89.5207 100.722 92.3492 100.931C91.1601 100.772 90.0435 100.507 89.0481 100.09H108.857L108.857 100.09C107.959 99.9352 107.773 99.8957 107 99.4726C107.761 99.5326 108.581 99.5665 109.426 99.6015H109.426C111.74 99.6973 114.244 99.801 116.262 100.469C119.666 99.7648 123.395 98.6959 126.155 96.657C126.929 96.0842 127.509 95.3514 128.085 94.6223C128.637 93.9227 129.188 93.2267 129.905 92.6786L129.286 90.8257C130.117 89.3915 129.998 87.873 129.875 86.3132C129.8 85.362 129.724 84.3953 129.862 83.4231C129.939 82.8797 130.068 82.3732 130.215 81.8818C128.024 79.6802 127.15 76.6109 127.429 73.5313C124.898 71.674 124.061 67.8921 124.334 64.8842C123.134 64.0621 122.655 62.9538 122.147 61.7792C121.886 61.1747 121.617 60.5526 121.238 59.9429C121.225 58.9938 120.969 58.0512 120.733 57.1829C120.162 55.0831 119.71 53.4183 123.095 53.1487ZM133.156 146.502L132.17 147.064C131.736 146.966 131.297 146.817 130.851 146.592C131.679 146.699 132.41 146.654 133.156 146.502ZM129.905 146.414C130.057 146.451 130.205 146.483 130.349 146.511C130.001 146.701 129.647 146.872 129.289 147.025C129.502 146.852 129.707 146.649 129.905 146.414ZM125.572 147.649C125.992 147.749 126.392 147.809 126.774 147.824C124.152 148.408 121.376 148.353 118.643 148.299H118.643C117.852 148.283 117.064 148.268 116.286 148.268C113.643 148.268 110.939 148.354 108.21 148.441H108.21C101.148 148.667 93.9237 148.897 87.1903 147.65V146.415C87.7018 146.181 88.1836 145.948 88.6488 145.722L88.649 145.722C90.7801 144.689 92.5617 143.824 95.238 143.944C95.238 142.799 98.3412 141.829 100.81 141.288V142.091C101.734 142.072 102.677 141.932 103.621 141.791C104.88 141.605 106.141 141.417 107.357 141.517C108.209 141.587 109.012 141.753 109.808 141.918C111.1 142.186 112.374 142.449 113.81 142.289C114.897 142.168 115.936 141.857 116.946 141.554C119.291 140.851 121.474 140.197 123.715 142.091C125.433 141.552 127.295 141.527 129.124 141.501C129.594 141.495 130.062 141.488 130.524 141.473V145.797C128.636 146.051 127.242 146.743 125.572 147.649ZM103.286 140.855H103.286V140.852L103.286 140.855ZM102.667 138.385L102.882 139.243C102.796 139.504 102.746 139.777 102.667 140.238L102.451 139.38C102.538 139.119 102.587 138.846 102.667 138.385ZM100.81 132.826L100.811 132.832L100.809 132.826H99.5713L100.19 131.591L100.176 131.591L100.191 131.59C100.161 131.738 100.133 131.859 100.11 131.961L100.11 131.961C100.05 132.218 100.021 132.348 100.067 132.438C100.113 132.529 100.237 132.581 100.485 132.686C100.576 132.724 100.684 132.769 100.81 132.826ZM93.9999 134.059L94.0006 134.061L93.9999 134.062V134.059ZM93.3816 132.208L93.3827 132.211L93.3808 132.209L93.3816 132.208ZM97.0958 130.355L97.0951 130.355V127.885L93.3815 128.503V128.502L97.0958 127.885V130.355ZM92.3881 131.049C92.6572 131.231 92.9404 131.382 93.3808 131.59V131.591C93.3031 131.565 93.232 131.542 93.1669 131.521C92.8073 131.403 92.6277 131.345 92.5085 131.226C92.4614 131.179 92.4237 131.122 92.3881 131.049ZM91.5244 130.355C91.629 130.446 91.7239 130.528 91.8123 130.603L91.1358 131.109C91.2526 130.92 91.3717 130.68 91.5244 130.355ZM89.6657 132.205L89.6673 132.208L89.6665 132.209L89.6657 132.205ZM88.4292 130.355L88.4313 130.357L88.4298 130.356L88.4292 130.355ZM89.0388 131.587L89.0469 131.59L89.0475 131.591L89.0388 131.587ZM108.652 123.457L109.249 123.36C108.964 123.358 108.68 123.349 108.398 123.337C108.482 123.375 108.567 123.415 108.652 123.457ZM134.856 118.752C135.152 118.792 135.441 118.845 135.723 118.915L147.445 116.366C145.826 116.246 144.401 115.782 143.524 114.914L143.526 114.914L143.524 114.914C144.258 115.647 144.47 115.893 144.762 116.767C141.465 117.405 138.162 118.077 134.856 118.752ZM134.239 121.09L134.328 121.142C134.674 121.344 134.847 121.445 134.985 121.582C135.122 121.719 135.223 121.891 135.425 122.237L135.464 122.303C135.134 121.689 134.861 121.127 134.637 120.532L134.597 120.585C134.505 120.71 134.385 120.871 134.239 121.09ZM134.904 145.506L135.476 145.18C132.675 144.841 134.942 143.619 136.714 143.944L136.714 143.944C135.874 143.602 135.287 143.316 134.787 142.898C134.443 143.8 134.174 144.302 133.62 145.179C134.249 145.287 134.528 145.339 134.904 145.506ZM134.437 142.57C134.161 142.279 133.9 141.928 133.621 141.477C133.646 141.553 133.669 141.622 133.69 141.686C133.808 142.045 133.866 142.224 133.985 142.343C134.079 142.436 134.21 142.493 134.437 142.57ZM133.619 141.473L133.619 141.473L133.618 141.473L133.619 141.473ZM131.762 135.915L131.766 135.916L131.762 135.914V135.915ZM134.233 137.146L134.238 137.149L134.238 137.149L134.233 137.146ZM134.852 123.559C134.047 123.301 133.571 123.113 133.008 122.759C132.808 122.814 132.6 122.875 132.382 122.943L134.852 123.559ZM148.476 125.414L148.481 125.413L148.476 125.415L148.476 125.414ZM149.687 122.945L149.714 122.943L149.713 122.944L149.687 122.945ZM140.428 124.179L140.455 124.178L140.428 124.179V134.061L140.428 134.061V124.179ZM155.904 116.149L155.805 117.343C155.748 117.133 155.68 116.933 155.602 116.746C155.701 116.544 155.802 116.345 155.904 116.149ZM136.714 138.385L136.714 138.385L134.238 139.003L134.238 139.002L136.714 138.385ZM94.5691 101.115C98.36 101.444 102.175 101.766 105.762 100.708C104.395 100.708 102.861 100.807 101.26 100.91L101.26 100.91C99.0697 101.051 96.7544 101.2 94.5691 101.115ZM102.667 123.561L102.667 123.561C102.693 123.484 102.716 123.413 102.737 123.348C102.855 122.989 102.913 122.81 103.032 122.691C103.079 122.644 103.136 122.607 103.209 122.571C103.027 122.839 102.875 123.122 102.667 123.561ZM103.619 122.041L102.926 121.35C103.186 121.473 103.499 121.583 103.905 121.709C103.798 121.831 103.704 121.94 103.619 122.041ZM102.048 119.238L101.429 119.856L101.429 119.855L102.048 119.238L102.049 119.238L102.048 119.238ZM109.476 119.238L109.471 119.239L109.476 119.238L109.476 119.238ZM105.143 118.62L105.143 118.62L105.144 118.619L105.143 118.62ZM110.095 111.826L110.096 111.826L110.095 111.826L110.095 111.828L110.095 111.826ZM111.953 112.444L111.952 112.443H111.952C111.952 110.576 112.066 109.522 113.19 108.12L113.809 108.737L113.81 108.738C112.045 108.981 112.008 110.377 111.966 111.991C111.962 112.14 111.958 112.291 111.953 112.444ZM113.193 106.884L113.191 106.885L113.19 106.884L113.193 106.884ZM118.143 106.885L118.141 106.884L118.143 106.884L118.143 106.885ZM115.667 101.944L115.048 102.561L115.048 102.561L115.667 101.943L115.669 101.944L115.667 101.944ZM122.258 101.843C120.719 101.995 119.157 102.094 117.659 102.066C116.954 101.458 116.313 101.413 115.16 101.333L115.048 101.326C115.177 101.239 115.285 101.165 115.378 101.101C115.463 101.043 115.535 100.993 115.599 100.951C117.612 101.763 119.95 101.932 122.258 101.843ZM146.318 113.38C146.216 113.381 146.112 113.377 146.007 113.368L144.762 113.679C145.308 113.609 145.82 113.507 146.318 113.38ZM146.185 112.707L147.239 112.444H143.531C144.522 112.465 145.339 112.496 146.185 112.707ZM143.524 111.209L143.527 111.208H143.524V112.444L143.524 112.444V111.209ZM146.915 110.686C147.021 110.656 147.129 110.624 147.239 110.591C147.091 110.591 146.967 110.591 146.859 110.589L146.884 110.633L146.915 110.686ZM146 108.12L146 108.12L146 108.121L146 108.12ZM142.286 101.944L142.288 101.943L142.286 101.944L142.286 101.945L142.286 101.944ZM146.001 93.9557L146 93.9142L151.572 93.2965L151.572 93.2936L151.572 93.2964L146 93.9141L146.001 93.9557ZM146 83.4139L146 83.4138L146.001 83.4147L146 83.4139ZM137.953 85.8844L137.953 85.8846L137.953 85.8846L137.953 85.8844ZM136.935 95.1798C137.106 94.6646 137.23 94.1278 137.322 93.5767L137.323 93.8165L137.327 94.309L137.327 94.312V94.3123V94.3126V94.3129V94.3132V94.3135V94.3139V94.3142C137.33 94.7974 137.333 95.2817 137.333 95.767C137.247 95.6377 137.173 95.5301 137.109 95.4375C137.039 95.3367 136.982 95.2537 136.935 95.1798ZM136.32 94.2434C136.37 94.3161 136.414 94.3795 136.452 94.4369L135.96 95.4185C136.035 94.9435 136.079 94.4435 136.095 93.914C136.181 94.0424 136.255 94.1493 136.319 94.2415L136.32 94.2433L136.32 94.2434ZM132.601 101.138C132.942 100.842 133.255 100.544 133.543 100.242L133 101.326C132.864 101.257 132.731 101.195 132.601 101.138ZM133.851 79.4763L134.238 79.7079C134.572 79.0084 134.87 78.524 135.277 78.0534L133.851 79.4763ZM136.095 77.2377L136.095 77.2373L136.096 77.2375L136.095 77.2377ZM136.096 77.2375C138.107 78.0456 138.754 77.6655 140.164 76.2672L136.096 77.2375ZM140.164 76.2672L138.579 74.1582C139.256 75.0508 139.53 75.323 140.429 76.002C140.337 76.0941 140.249 76.1825 140.164 76.2672ZM138.572 74.149L138.572 74.149L141.316 69.9691C141.879 70.2604 142.12 70.3077 142.905 70.4431C142.799 70.614 142.706 70.7686 142.626 70.9118C142.711 70.9555 142.803 71.0047 142.905 71.0607C142.369 72.0637 142.336 72.3627 142.286 73.5312L142.286 73.5313L142.286 73.5314L141.196 74.6192C141.169 74.7354 141.144 74.8722 141.113 75.0375L141.113 75.0384C141.094 75.1419 141.073 75.2566 141.048 75.3843C140.923 75.2828 140.809 75.1917 140.704 75.1096L140.429 75.3843C139.672 74.6462 139.55 74.5708 138.572 74.149ZM25.2861 132.826C27.0628 133.651 28.9026 133.951 30.8576 134.062C30.085 133.638 29.8993 133.599 29.0004 133.444C30.8629 132.9 32.7655 132.912 34.6829 132.924C35.8723 132.932 37.0673 132.94 38.262 132.815C39.5957 132.675 40.8776 132.319 42.1628 131.962L42.1629 131.962C43.5274 131.583 44.8957 131.204 46.3337 131.081C47.853 130.951 49.3738 130.986 50.8984 131.021H50.8984H50.8985H50.8986H50.8987H50.8988C52.4677 131.057 54.0406 131.093 55.6195 130.949C57.2739 130.799 58.8367 130.511 60.3731 130.228C63.3642 129.677 66.2549 129.145 69.5258 129.68C68.0699 129.862 66.6062 130.053 65.1371 130.244C57.6682 131.215 50.0589 132.204 42.6191 132.209C42.806 132.582 42.8389 132.742 42.9354 132.806C43.0468 132.88 43.2428 132.827 43.8572 132.827C42.3029 133.272 40.788 133.252 39.2464 133.232C38.3223 133.22 37.3886 133.207 36.4311 133.295C35.3872 133.391 34.4019 133.655 33.4198 133.918C32.557 134.149 31.6967 134.38 30.8015 134.495C28.4942 134.792 26.1215 134.844 23.7368 134.897C21.3587 134.949 18.9685 135.001 16.6191 135.297C18.1839 136.499 20.1847 136.871 22.1705 137.24C23.0169 137.398 23.8607 137.554 24.6668 137.775C25.7888 138.081 26.9085 138.386 28.0262 138.69C33.5852 140.203 39.0939 141.702 44.5815 143.349C45.4999 143.625 46.4728 143.823 47.4516 144.022C49.7249 144.486 52.0307 144.955 53.762 146.415C53.8111 146.42 53.8578 146.425 53.9024 146.43C54.7824 146.524 54.822 146.528 55.6191 147.033C59.334 147.386 65.5109 148.744 68.6191 150.739C72.8107 149.563 77.2635 148.975 81.6191 148.886C79.863 148.13 77.8082 147.78 75.8153 147.441C75.0515 147.311 74.2968 147.182 73.5715 147.033C75.1981 145.011 75.223 143.407 75.2522 141.527C75.267 140.579 75.2828 139.562 75.5054 138.386C75.7538 137.074 76.2789 135.82 76.8042 134.565C77.2149 133.583 77.6259 132.601 77.9049 131.592H75.4287C78.4453 130.082 81.3375 129.266 84.7144 129.121C83.4467 128.59 81.9575 128.393 80.3815 128.386C80.5509 128.367 80.7202 128.348 80.8895 128.329L80.8897 128.329L80.8898 128.329C82.7773 128.115 84.6638 127.901 86.5718 127.885V101.326C80.0188 102.693 73.7879 106.422 67.8084 110L67.8084 110L67.8084 110L67.8083 110C65.7809 111.213 63.7823 112.409 61.8099 113.49C56.7374 116.27 51.5671 118.911 46.3953 121.552L46.395 121.552L46.3948 121.552C39.2775 125.188 32.1575 128.824 25.2861 132.826ZM75.7831 128.761C75.2796 128.769 74.8011 128.751 74.3402 128.733C72.7959 128.674 71.4494 128.622 70.0224 129.618C70.1738 129.6 70.3251 129.581 70.4763 129.563C71.3488 129.456 72.3052 129.302 73.3083 129.141C74.1097 129.012 74.9409 128.879 75.7831 128.761Z" fill="white"/>
<path d="M25.2852 133.444C26.2174 133.866 26.7183 133.954 27.7613 134.061C26.6941 133.409 26.5722 133.422 25.2852 133.444Z" fill="#979797"/>
<path d="M29 132.826C30.789 133.575 32.6363 133.442 34.5714 133.443C32.7824 132.694 30.9351 132.827 29 132.826Z" fill="#91928F"/>
<path d="M0.523438 134.061C2.97425 135.087 5.93391 134.678 8.57106 134.678C13.4615 134.678 18.6473 135.197 23.4282 134.061C21.3111 133.411 18.8572 134.05 16.6187 134.06C11.254 134.086 5.8881 134.061 0.523438 134.061Z" fill="#FFFFE0"/>
<path d="M27.7617 134.061C29.3793 134.739 30.9585 134.674 32.7141 134.678C31.0965 134 29.5173 134.065 27.7617 134.061Z" fill="#171E27"/>
<path d="M1.14258 134.679C2.23767 135.16 3.02201 135.242 4.23782 135.296C3.14272 134.815 2.35839 134.733 1.14258 134.679Z" fill="#A7988D"/>
<path d="M4.2373 134.679C6.18792 136.096 8.1113 135.477 10.4278 135.297C8.46973 134.477 6.35073 134.679 4.2373 134.679Z" fill="#918682"/>
<path d="M10.4277 134.679C12.0453 135.357 13.6251 135.292 15.3801 135.296C13.7625 134.618 12.1834 134.683 10.4277 134.679Z" fill="#7C7476"/>
<path d="M15.3809 134.679C16.6511 135.219 17.7004 135.267 19.0951 135.296C17.8249 134.757 16.7756 134.708 15.3809 134.679Z" fill="#584C4E"/>
<path d="M1.76172 135.297C2.85681 135.778 3.64115 135.86 4.85696 135.915C3.76186 135.433 2.97753 135.351 1.76172 135.297Z" fill="#C1BCB2"/>
<path d="M9.80957 135.297C10.9047 135.778 11.689 135.86 12.9048 135.915C11.8097 135.433 11.0254 135.351 9.80957 135.297Z" fill="#2F3036"/>
<path d="M12.9043 135.297C14.1746 135.837 15.2239 135.885 16.6186 135.915C15.3483 135.375 14.299 135.326 12.9043 135.297Z" fill="#141822"/>
<path d="M3 135.914C5.76776 137.073 9.30376 136.532 12.2857 136.532C9.51795 135.373 5.98195 135.914 3 135.914Z" fill="#FFF8E1"/>
<path d="M13.5234 135.914C14.296 136.337 14.4817 136.377 15.3806 136.532C14.608 136.109 14.4223 136.069 13.5234 135.914Z" fill="#CDC5B7"/>
<path d="M15.3809 135.914C16.1534 136.337 16.3391 136.377 17.238 136.532C16.4654 136.109 16.2797 136.069 15.3809 135.914Z" fill="#96948C"/>
<path d="M13.5234 136.533C16.2739 137.695 19.826 137.743 22.8092 137.768C19.9232 136.384 16.6688 136.533 13.5234 136.533Z" fill="#F8F4E7"/>
<path d="M95.238 143.944C91.92 143.618 89.9093 144.64 87.1904 146.415V147.65C93.6378 149.182 101.014 148.267 107.619 148.267C112.977 148.267 119.056 149.066 124.331 148.104C126.535 147.703 128.348 146.306 130.524 145.797V141.473C128.692 141.488 125.435 140.707 124.333 142.091C120.725 139.168 117.912 141.64 113.97 142.148C111.46 142.472 109.412 141.355 107 141.319C105.34 141.294 103.707 141.942 102.048 142.054C100.008 142.191 95.628 141.484 95.238 143.944Z" fill="white"/>
<path d="M69.2373 150.12C73.3769 151.853 79.6169 150.738 84.0944 150.738C79.9549 149.004 73.7149 150.12 69.2373 150.12Z" fill="#291924"/>
<path d="M88.4277 150.443C92.5673 152.176 98.8073 151.061 103.285 151.061C99.1453 149.328 92.9053 150.443 88.4277 150.443Z" fill="#291924"/>
<path d="M112.571 149.826C116.711 151.559 122.951 150.444 127.428 150.444C123.289 148.71 117.049 149.826 112.571 149.826Z" fill="#291924"/>
</svg>
