<svg width="180" height="180" viewBox="0 0 195 190" fill="none" xmlns="http://www.w3.org/2000/svg">
<path d="M95.999 1.8493C44.0859 1.8493 1.85145 44.0829 1.85145 95.999C1.85145 147.915 44.0859 190.149 95.999 190.149C147.916 190.149 190.149 147.915 190.149 95.999C190.149 44.0829 147.916 1.8493 95.999 1.8493ZM95.999 192C43.0647 192 0 148.93 0 95.999C0 43.0679 43.0647 0 95.999 0C148.931 0 192 43.0679 192 95.999C192 148.93 148.931 192 95.999 192Z" fill="white"/>
<path d="M95.9982 24.0037C56.3001 24.0037 24.0037 56.2974 24.0037 95.9988C24.0037 135.7 56.3001 167.996 95.9982 167.996C135.698 167.996 167.995 135.7 167.995 95.9988C167.995 56.2974 135.698 24.0037 95.9982 24.0037ZM95.9982 169.845C55.281 169.845 22.1543 136.715 22.1543 95.9988C22.1543 55.2824 55.281 22.1523 95.9982 22.1523C136.713 22.1523 169.844 55.2824 169.844 95.9988C169.844 136.715 136.713 169.845 95.9982 169.845Z" fill="white"/>
<path d="M97.92 145C70.9018 145 49 123.097 49 96.079C49 69.0614 70.9018 47.1579 97.92 47.1579C124.94 47.1579 146.842 69.0614 146.842 96.079C146.842 123.097 124.94 145 97.92 145Z" fill="white"/>
</svg>
