<svg width="180" height="180" viewBox="0 0 180 180" fill="none" xmlns="http://www.w3.org/2000/svg">
<rect width="180" height="180" fill="#1E1E1E"/>
<path d="M46.0101 34H53.3925L56.6841 57.3023H56.7781L60.0697 34H67.4522V66.5581H62.5619V41.907H62.4678L58.706 66.5581H54.38L50.6182 41.907H50.5242V66.5581H46.0101V34Z" fill="white"/>
<path d="M75.3089 34H82.3152L87.6757 66.5581H82.5033L81.5629 60.093V60.186H75.6851L74.7446 66.5581H69.9484L75.3089 34ZM80.9516 55.7674L78.6475 39.6744H78.5534L76.2964 55.7674H80.9516Z" fill="white"/>
<path d="M90.1852 34H97.5677L100.859 57.3023H100.953L104.245 34H111.627V66.5581H106.737V41.907H106.643L102.881 66.5581H98.5551L94.7934 41.907H94.6993V66.5581H90.1852V34Z" fill="white"/>
<path d="M119.484 34H126.49L131.851 66.5581H126.678L125.738 60.093V60.186H119.86L118.92 66.5581H114.123L119.484 34ZM125.127 55.7674L122.823 39.6744H122.729L120.471 55.7674H125.127Z" fill="white"/>
<path d="M54 74C54 77.3137 51.3137 80 48 80C44.6863 80 42 77.3137 42 74C42 70.6863 44.6863 68 48 68C51.3137 68 54 70.6863 54 74Z" fill="white"/>
<path d="M46 83.497L50.5 83.4692V110.5L46 110.528V83.497Z" fill="white"/>
<path d="M46 122.333H55.6768V125.667H49.6579V132.167H54.3799V135.5H49.6579V145.667H46V122.333Z" fill="white"/>
<path d="M59.1858 122.333H64.1406L67.9315 145.667H64.2736L63.6086 141.033V141.1H59.4519L58.7868 145.667H55.3949L59.1858 122.333ZM63.1763 137.933L61.5468 126.4H61.4803L59.8841 137.933H63.1763Z" fill="white"/>
<path d="M74.7955 146C73.0442 146 71.7029 145.5 70.7718 144.5C69.8629 143.5 69.4084 142.089 69.4084 140.267V127.733C69.4084 125.911 69.8629 124.5 70.7718 123.5C71.7029 122.5 73.0442 122 74.7955 122C76.5469 122 77.877 122.5 78.786 123.5C79.7171 124.5 80.1826 125.911 80.1826 127.733V130.2H76.7242V127.5C76.7242 126.056 76.1146 125.333 74.8953 125.333C73.676 125.333 73.0663 126.056 73.0663 127.5V140.533C73.0663 141.956 73.676 142.667 74.8953 142.667C76.1146 142.667 76.7242 141.956 76.7242 140.533V136.967H80.1826V140.267C80.1826 142.089 79.7171 143.5 78.786 144.5C77.877 145.5 76.5469 146 74.7955 146Z" fill="white"/>
<path d="M85.2309 125.667H81.4067V122.333H92.713V125.667H88.8888V145.667H85.2309V125.667Z" fill="white"/>
<path d="M99.6414 146C97.8457 146 96.4712 145.489 95.518 144.467C94.5647 143.444 94.0881 142 94.0881 140.133V127.867C94.0881 126 94.5647 124.556 95.518 123.533C96.4712 122.511 97.8457 122 99.6414 122C101.437 122 102.812 122.511 103.765 123.533C104.718 124.556 105.195 126 105.195 127.867V140.133C105.195 142 104.718 143.444 103.765 144.467C102.812 145.489 101.437 146 99.6414 146ZM99.6414 142.667C100.905 142.667 101.537 141.9 101.537 140.367V127.633C101.537 126.1 100.905 125.333 99.6414 125.333C98.3778 125.333 97.7459 126.1 97.7459 127.633V140.367C97.7459 141.9 98.3778 142.667 99.6414 142.667Z" fill="white"/>
<path d="M107.669 122.333H113.089C114.973 122.333 116.348 122.778 117.212 123.667C118.077 124.533 118.509 125.878 118.509 127.7V129.133C118.509 131.556 117.711 133.089 116.115 133.733V133.8C117.002 134.067 117.622 134.611 117.977 135.433C118.354 136.256 118.542 137.356 118.542 138.733V142.833C118.542 143.5 118.565 144.044 118.609 144.467C118.653 144.867 118.764 145.267 118.941 145.667H115.217C115.084 145.289 114.995 144.933 114.951 144.6C114.907 144.267 114.885 143.667 114.885 142.8V138.533C114.885 137.467 114.707 136.722 114.352 136.3C114.02 135.878 113.432 135.667 112.59 135.667H111.326V145.667H107.669V122.333ZM112.657 132.333C113.388 132.333 113.931 132.144 114.286 131.767C114.663 131.389 114.851 130.756 114.851 129.867V128.067C114.851 127.222 114.696 126.611 114.386 126.233C114.098 125.856 113.632 125.667 112.989 125.667H111.326V132.333H112.657Z" fill="white"/>
<path d="M123.919 135.733L119.497 122.333H123.387L125.881 130.9H125.948L128.442 122.333H132L127.577 135.733V145.667H123.919V135.733Z" fill="white"/>
<path d="M72.1227 109.217L72.1265 109.221C73.6051 110.764 75.7243 111.5 78.4002 111.5C81.076 111.5 83.1953 110.764 84.6739 109.221L84.6777 109.217C86.1481 107.648 86.8483 105.447 86.8483 102.689V91.875V91.375H86.3483H78.6425H78.1425V91.875V96.5973V97.0973H78.6425H80.808V103.067C80.808 104.077 80.5892 104.741 80.2384 105.149C79.9 105.542 79.368 105.778 78.5456 105.778C77.7231 105.778 77.1912 105.542 76.8528 105.149C76.502 104.741 76.2831 104.077 76.2831 103.067V84.9806C76.2831 83.9532 76.5026 83.276 76.8551 82.8602C77.1942 82.4602 77.7254 82.2223 78.5456 82.2223C79.3657 82.2223 79.8969 82.4602 80.236 82.8602C80.5885 83.276 80.808 83.9532 80.808 84.9806V88.1445V88.6445H81.308H86.3483H86.8483V88.1445V85.3111C86.8483 82.5553 86.1489 80.3675 84.6757 78.8283C83.1979 77.2525 81.078 76.5 78.4002 76.5C75.7223 76.5 73.6024 77.2526 72.1246 78.8284C70.6514 80.3676 69.9521 82.5553 69.9521 85.3111V102.689C69.9521 105.447 70.6523 107.648 72.1227 109.217L72.1227 109.217ZM95.125 109.217L95.1288 109.221C96.6074 110.764 98.7266 111.5 101.402 111.5C104.078 111.5 106.198 110.764 107.676 109.221L107.676 109.221L107.68 109.217C109.15 107.648 109.851 105.447 109.851 102.689V77.4723V76.9723H109.351H104.213H103.713V77.4723V103.067C103.713 104.147 103.479 104.808 103.126 105.176L103.12 105.182L103.114 105.188C102.783 105.558 102.273 105.778 101.499 105.778C100.731 105.778 100.198 105.561 99.8303 105.182C99.5036 104.813 99.2854 104.148 99.2854 103.067V77.4723V76.9723H98.7854H93.4544H92.9544V77.4723V102.689C92.9544 105.447 93.6546 107.648 95.125 109.217L95.125 109.217ZM117.722 109.213L117.726 109.217C119.173 110.765 121.28 111.5 123.955 111.5C126.663 111.5 128.8 110.749 130.279 109.172C131.784 107.602 132.5 105.384 132.5 102.594C132.5 100.448 132.066 98.5531 131.179 96.9248C130.296 95.3038 128.708 93.5411 126.459 91.6352C124.729 90.1676 123.562 88.9472 122.923 87.9702C122.327 87.01 122.032 85.9851 122.032 84.8861C122.032 83.8897 122.243 83.2355 122.581 82.8354C122.904 82.4517 123.41 82.2223 124.197 82.2223C124.962 82.2223 125.468 82.4518 125.802 82.8478L125.807 82.8535L125.812 82.8591C126.142 83.2264 126.363 83.8933 126.363 84.9806V86.6806V87.1806H126.863H131.903H132.403V86.6806V85.3111C132.403 82.5596 131.722 80.3743 130.285 78.835C128.87 77.2526 126.794 76.5 124.149 76.5C121.471 76.5 119.351 77.2525 117.873 78.8283C116.402 80.3655 115.701 82.5199 115.701 85.2167C115.701 87.2159 116.156 89.0334 117.074 90.6573L117.076 90.6611C117.989 92.2427 119.572 93.9856 121.787 95.8903L121.79 95.8925C123.522 97.3611 124.668 98.5942 125.272 99.5946L125.272 99.5946L125.275 99.6002C125.866 100.55 126.169 101.668 126.169 102.972C126.169 104.085 125.935 104.786 125.571 105.187L125.57 105.188C125.241 105.554 124.719 105.778 123.906 105.778C123.084 105.778 122.552 105.542 122.214 105.149C121.863 104.741 121.644 104.077 121.644 103.067V100.8V100.3H121.144H116.104H115.604V100.8V102.689C115.604 105.444 116.286 107.643 117.722 109.213L117.722 109.213Z" fill="#1E1E1E" stroke="white"/>
<path fill-rule="evenodd" clip-rule="evenodd" d="M94.595 71.6441C82.1175 62.6457 64.6626 71.3135 64.2898 86.6933L64.0057 98.4109C63.7454 109.152 72.381 118 83.1247 118H126.55C133.987 118 139.039 110.445 136.197 103.572C135.456 101.779 134.23 100.228 132.656 99.0927L131.144 98.0023C131.715 99.3512 132 100.882 132 102.594C132 105.302 131.305 107.38 129.916 108.828C128.559 110.276 126.572 111 123.955 111C121.37 111 119.415 110.292 118.091 108.875C116.766 107.427 116.104 105.365 116.104 102.689V100.8H121.144V103.067C121.144 105.207 122.065 106.278 123.906 106.278C124.811 106.278 125.49 106.026 125.942 105.522C126.427 104.987 126.669 104.137 126.669 102.972C126.669 101.587 126.346 100.375 125.7 99.3361C125.053 98.2658 123.858 96.9908 122.113 95.5111C119.916 93.6222 118.382 91.9222 117.509 90.4111C116.976 89.4674 116.605 88.4529 116.398 87.3678L109.351 82.2854V102.689C109.351 105.365 108.672 107.427 107.315 108.875C105.958 110.292 103.987 111 101.402 111C98.8177 111 96.8468 110.292 95.4898 108.875C94.1329 107.427 93.4544 105.365 93.4544 102.689V77.4722H98.7854V103.067C98.7854 104.2 99.0116 105.019 99.4639 105.522C99.9486 106.026 100.627 106.278 101.499 106.278C102.372 106.278 103.034 106.026 103.486 105.522C103.971 105.019 104.213 104.2 104.213 103.067V78.5806L94.595 71.6441ZM78.4002 111C75.8154 111 73.8445 110.292 72.4876 108.875C71.1306 107.427 70.4521 105.365 70.4521 102.689V85.3111C70.4521 82.6352 71.1306 80.5889 72.4876 79.1722C73.8445 77.7241 75.8154 77 78.4002 77C80.9849 77 82.9558 77.7241 84.3128 79.1722C85.6698 80.5889 86.3483 82.6352 86.3483 85.3111V88.1445H81.308V84.9806C81.308 82.8084 80.3872 81.7222 78.5456 81.7222C76.7039 81.7222 75.7831 82.8084 75.7831 84.9806V103.067C75.7831 105.207 76.7039 106.278 78.5456 106.278C80.3872 106.278 81.308 105.207 81.308 103.067V96.5972H78.6425V91.875H86.3483V102.689C86.3483 105.365 85.6698 107.427 84.3128 108.875C82.9558 110.292 80.9849 111 78.4002 111Z" fill="#FFDA2A"/>
</svg>
