<svg width="202" height="132" viewBox="0 0 202 132" fill="none" xmlns="http://www.w3.org/2000/svg">
<g clip-path="url(#clip0_295_1109)">
<path opacity="0.974941" d="M42.2319 3.27833C41.8722 1.74776 44.0011 0.972909 44.7093 2.37665L52.8867 18.5886C63.5501 39.729 87.3103 50.8086 110.359 45.3885L128.034 41.2319C129.565 40.8721 130.34 43.0009 128.936 43.7093L112.724 51.8867C91.5839 62.55 80.5043 86.3102 85.9244 109.359L90.081 127.034C90.4408 128.565 88.3119 129.34 87.6036 127.936L79.4261 111.724C68.7628 90.5838 45.0026 79.5042 21.9539 84.9244L4.27838 89.0809C2.74786 89.4407 1.973 87.3118 3.37674 86.6036L19.5887 78.4261C40.7291 67.7627 51.8087 44.0025 46.3885 20.9538L42.2319 3.27833Z" fill="#FFDA2A" stroke="#111111"/>
<path fill-rule="evenodd" clip-rule="evenodd" d="M72.2971 120.413L70.2232 121.51L71.2133 105.038L71.347 102.814L73.2878 103.934L86.0641 111.302L86.9408 96.718L87.0744 94.4943L87.1942 94.5634L87.2024 94.4267L89.1432 95.546L101.8 102.845L102.668 88.3977L102.802 86.1741L102.922 86.2431L102.93 86.1065L104.871 87.2258L117.527 94.5251L118.396 80.0775L118.529 77.8538L118.649 77.9229L118.657 77.7863L120.598 78.9055L133.255 86.2049L134.123 71.7573L134.257 69.5336L134.376 69.6027L134.385 69.4661L136.325 70.5853L149.102 77.9537L149.978 63.3695L150.112 61.1458L152.053 62.2651L166.482 70.5868L164.401 71.6875L151.919 64.4888L151.062 78.7442L150.755 78.907L148.988 79.8414L148.674 80.0077L148.674 80.0077L148.546 80.0753L136.184 72.9456L135.335 87.0644L135.027 87.2272L133.261 88.1616L132.946 88.328L132.946 88.3279L132.818 88.3955L120.456 81.2659L119.607 95.3847L119.3 95.5474L117.533 96.4819L117.219 96.6482L117.219 96.6481L117.091 96.7157L104.729 89.5861L103.88 103.705L103.572 103.868L101.806 104.802L101.492 104.968L101.491 104.968L101.364 105.036L89.0013 97.9063L88.1525 112.025L86.0785 113.122L86.0785 113.122L85.9506 113.19L85.6362 113.356L73.1541 106.157L72.2971 120.413Z" fill="#1E1E1E"/>
<path fill-rule="evenodd" clip-rule="evenodd" d="M64.5559 104.97L62.4819 106.067L63.4721 89.5948L63.6058 87.3711L65.5465 88.4904L78.3228 95.8588L79.1996 81.2746L79.3332 79.0509L79.453 79.12L79.4612 78.9834L81.402 80.1026L94.0585 87.402L94.927 72.9544L95.0607 70.7307L95.1804 70.7998L95.1886 70.6631L97.1294 71.7824L109.786 79.0817L110.654 64.6342L110.788 62.4105L110.908 62.4796L110.916 62.3429L112.857 63.4622L125.513 70.7615L126.382 56.3139L126.516 54.0903L126.635 54.1593L126.644 54.0227L128.584 55.142L141.361 62.5104L142.237 47.9262L142.371 45.7025L144.312 46.8218L158.741 55.1434L156.66 56.2442L144.178 49.0454L143.321 63.3009L143.013 63.4636L141.247 64.3981L140.933 64.5644L140.933 64.5643L140.805 64.6319L128.442 57.5023L127.594 71.6211L127.286 71.7838L125.52 72.7183L125.205 72.8846L125.205 72.8845L125.077 72.9521L112.715 65.8225L111.866 79.9413L111.559 80.104L109.792 81.0385L109.478 81.2048L109.478 81.2047L109.35 81.2724L96.9875 74.1427L96.1387 88.2615L95.8311 88.4243L94.0648 89.3587L93.7504 89.525L93.7502 89.525L93.6224 89.5926L81.2601 82.4629L80.4113 96.5817L78.3373 97.6789L78.3373 97.6788L78.2094 97.7465L77.895 97.9128L65.4129 90.7141L64.5559 104.97Z" fill="#1E1E1E"/>
</g>
<defs>
<clipPath id="clip0_295_1109">
<rect width="202" height="132" fill="white"/>
</clipPath>
</defs>
</svg>
