<svg width="108" height="16" viewBox="0 0 108 16" fill="none" xmlns="http://www.w3.org/2000/svg">
<path fill-rule="evenodd" clip-rule="evenodd" d="M2.32598 16H-0.000976562L8.50607 1.90306L9.65451 0L10.8368 1.89689L18.6197 14.3845L26.1518 1.90306L27.3003 0L27.3741 0.118408L27.4455 0L28.6278 1.89689L36.3369 14.2661L43.7976 1.90306L44.946 0L45.0198 0.118406L45.0913 0L46.2735 1.89689L53.9827 14.2661L61.4434 1.90306L62.5918 0L62.6656 0.118403L62.737 0L63.9193 1.89689L71.6284 14.2661L79.0891 1.90306L80.2376 0L80.3114 0.118403L80.3828 0L81.5651 1.89689L89.348 14.3845L96.8801 1.90306L98.0286 0L99.2108 1.89689L108.001 16H105.666L98.0624 3.79995L90.7 16H90.3548H90.2096H88.3731H88.0203H87.8751L80.3452 3.91835L73.0542 16H72.909H72.7091H72.5639H70.7273H70.5821H70.3745H70.2293L62.6994 3.91835L55.4085 16H55.2633H55.0633H54.9181H53.0815H52.9363H52.7288H52.5836L45.0536 3.91835L37.7627 16H37.6175H37.4175H37.2723H35.4358H35.2906H35.083H34.9378L27.4079 3.91835L20.1169 16H19.9717H19.6266H17.79H17.6448H17.292L9.68831 3.79995L2.32598 16Z" fill="#1E1E1E"/>
</svg>
